<svg width="22" height="18" viewBox="0 0 22 18" fill="none" xmlns="http://www.w3.org/2000/svg">
<path d="M16 3.75C16 3.19772 16.4477 2.75 17 2.75C17.5523 2.75 18 3.19772 18 3.75V13.75C18 14.3023 17.5523 14.75 17 14.75C16.4477 14.75 16 14.3023 16 13.75V3.75ZM20 7C20 6.44772 20.4477 6 21 6C21.5523 6 22 6.44772 22 7V11C22 11.5523 21.5523 12 21 12C20.4477 12 20 11.5523 20 11V7ZM12 6.75C12 6.19772 12.4477 5.75 13 5.75C13.5523 5.75 14 6.19772 14 6.75V10.75C14 11.3023 13.5523 11.75 13 11.75C12.4477 11.75 12 11.3023 12 10.75V6.75ZM4 4C4 3.44772 4.44772 3 5 3C5.55228 3 6 3.44772 6 4V14C6 14.5523 5.55228 15 5 15C4.44772 15 4 14.5523 4 14V4ZM0 7C0 6.44772 0.447715 6 1 6C1.55228 6 2 6.44772 2 7V11C2 11.5523 1.55228 12 1 12C0.447715 12 0 11.5523 0 11V7ZM8 1C8 0.447715 8.44771 0 9 0C9.55228 0 10 0.447715 10 1V17C10 17.5523 9.55228 18 9 18C8.44771 18 8 17.5523 8 17V1Z" fill="#FE476E"/>
</svg>
